<svg xmlns="http://www.w3.org/2000/svg" width="21" height="20" viewBox="0 0 21 20" fill="#77a9d1 "><path xmlns="http://www.w3.org/2000/svg" d="M 9.091 1.537 C 9.823 0.613 11.224 0.611 11.958 1.534 L 17.066 7.955 C 17.834 8.92 17.154 10.347 15.921 10.359 L 14.533 10.373 L 14.532 15.037 C 14.532 15.278 14.484 15.516 14.392 15.738 C 14.3 15.96 14.165 16.162 13.995 16.331 C 13.825 16.501 13.623 16.636 13.401 16.728 C 13.179 16.82 12.941 16.867 12.7 16.867 L 8.342 16.863 C 7.857 16.862 7.392 16.669 7.049 16.326 C 6.707 15.983 6.514 15.518 6.514 15.033 L 6.514 10.374 L 5.158 10.373 C 3.92 10.372 3.229 8.943 3.997 7.972 L 9.091 1.537 Z" fill="#77a9d1" transform="matrix(1, 0, 0, 1, -4.440892098500626e-16, 0)"/></svg>